# xmcd
#
# Track frame offsets:
#	183
#	13563
#	23775
#	35543
#	51348
#	61160
#	74335
#	85253
#	102253
#	114073
#	129260
#	140475
#	151790
#	161508
#	171088
#	184213
#	195270
#
# Disc length: 2765
#
# Revision: 2
# Processed by: cddbd v1.5.1PL0 Copyright (c) Steve Scherf et al.
# Submitted via: CDex 1.51
# Normalized: r0:TDELIM( - ),TSWAP
#
DISCID=d20acb11
DTITLE=Dolly Parton, Donna Fargo, Lynn Anderson - 16 great songs and Bonus Track
DYEAR=1990
DGENRE=Country
TTITLE0=Lynn Anderson - Rose Garden
TTITLE1=Dolly Parton - Release me
TTITLE2=Donna Fargo - The happiest girl in whole USA
TTITLE3=Lynn Anderson - You needed me
TTITLE4=Dolly Parton - Girl left alone
TTITLE5=Donna Fargo - Daddy
TTITLE6=Dolly Parton - Honky Tonk angels
TTITLE7=Lynn  Anderson - Blue Bayo
TTITLE8=Dolly Parton - Letter to heaven
TTITLE9=Lynn Anderson - Desperado
TTITLE10=Donna Fargo - Wishful Thinking
TTITLE11=Dolly Parton - Makin´Believe
TTITLE12=Donna Fargo - Sticks and stones
TTITLE13=Lynn Anderson - Snowbird
TTITLE14=Dolly Parton - Little Blossom
TTITLE15=Donna Fargo - All that´s keeping me alive
TTITLE16=Dolly Parton - Two little orphans
EXTD=YEAR: 1990
EXTT0=
EXTT1=
EXTT2=
EXTT3=
EXTT4=
EXTT5=
EXTT6=
EXTT7=
EXTT8=
EXTT9=
EXTT10=
EXTT11=
EXTT12=
EXTT13=
EXTT14=
EXTT15=
EXTT16=
PLAYORDER=
